<?xml version="1.0" encoding="UTF-8" standalone="no"?>
<!-- Created with Inkscape (http://www.inkscape.org/) -->

<svg
   version="1.1"
   id="svg500"
   width="256"
   height="256"
   viewBox="0 0 256 256"
   xml:space="preserve"
   xmlns="http://www.w3.org/2000/svg"
   xmlns:svg="http://www.w3.org/2000/svg"><defs
     id="defs504"><clipPath
       clipPathUnits="userSpaceOnUse"
       id="clipPath516"><path
         d="M 0,338 H 397 V 0 H 0 Z"
         id="path514" /></clipPath><clipPath
       id="clipPath16"
       clipPathUnits="userSpaceOnUse"><path
         id="path18"
         d="M 0,36 H 36 V 0 H 0 Z" /></clipPath></defs><g
     id="g510"
     style="fill:#77b255;fill-opacity:1"
     transform="matrix(1.533649,0,0,-1.533649,-20.339229,502.78234)"><path
       d="m 0,0 h -116.219 c -5.667,0 -10.278,-4.109 -10.278,-9.159 0,-5.049 4.611,-9.158 10.278,-9.158 H 0 c 5.668,0 10.279,4.109 10.279,9.158 C 10.279,-4.109 5.668,0 0,0"
       style="fill:#c6e5b3;fill-opacity:1;fill-rule:nonzero;stroke:none"
       id="path520"
       transform="translate(154.75964,193.68447)" /><path
       d="m 0,0 c 0,-18.063 -7.036,-30.65 -20.904,-36.183 -5.829,-2.32 -12.809,-3.508 -20.755,-3.508 h -24.709 c -5.142,0 -9.319,4.177 -9.319,9.32 0,2.58 1.039,4.901 2.728,6.59 1.69,1.689 4.01,2.729 6.591,2.729 h 15.891 c 24.394,0 29.926,4.511 29.926,19.622 0,18.806 -7.277,23.132 -22.723,23.132 h -79.827 c -15.687,0 -22.686,-4.437 -22.686,-23.132 0,-15.129 5.848,-19.622 29.908,-19.622 h 15.946 c 5.161,0 9.32,-4.177 9.32,-9.319 0,-2.581 -1.04,-4.902 -2.729,-6.591 -1.671,-1.689 -4.01,-2.729 -6.591,-2.729 h -24.765 c -7.964,0 -14.944,1.188 -20.755,3.508 -13.868,5.533 -20.903,18.12 -20.903,36.183 0,27.234 15.389,41.621 44.536,41.621 h 77.265 C -15.409,41.621 0,27.234 0,0"
       style="fill:#77b255;fill-opacity:1;fill-rule:nonzero;stroke:none"
       id="path524"
       transform="translate(179.83494,246.25387)" /><circle
       style="fill:#77b255;fill-opacity:1;display:inline;stroke-width:0.516044;stroke-dasharray:none"
       id="circle3"
       cx="-144.12935"
       cy="-44.875725"
       r="22.180693"
       transform="matrix(1,0,0,-1,179.83494,246.25387)" /><path
       id="path4"
       style="fill:#ffffff;fill-opacity:1;display:inline;fill-rule:nonzero;stroke:none;stroke-width:4.08536"
       d="m -130.6598,46.726461 c 0,-7.897 -6.40177,-14.29877 -14.29879,-14.29877 -7.89701,0 -14.29878,6.40177 -14.29878,14.29877 0,7.89702 6.40177,14.29878 14.29878,14.29878 7.89702,0 14.29879,-6.40176 14.29879,-14.29878"
       transform="translate(179.83494,246.25387)" /><path
       id="path5"
       style="fill:#292f33;fill-opacity:1;fill-rule:nonzero;stroke:none;stroke-width:4.08536"
       d="m -138.83054,46.726461 c 0,-3.38676 -2.74128,-6.12805 -6.12805,-6.12805 -3.38677,0 -6.12805,2.74129 -6.12805,6.12805 0,3.38677 2.74128,6.12806 6.12805,6.12806 3.38677,0 6.12805,-2.74129 6.12805,-6.12806"
       transform="translate(179.83494,246.25387)" /><circle
       style="fill:#77b255;fill-opacity:1;display:inline;stroke-width:0.516044;stroke-dasharray:none"
       id="circle5"
       cx="-22.048447"
       cy="-44.943886"
       r="22.180693"
       transform="matrix(1,0,0,-1,179.83494,246.25387)" /><path
       id="path6"
       style="fill:#ffffff;fill-opacity:1;display:inline;fill-rule:nonzero;stroke:none;stroke-width:4.08536"
       d="m -6.9099313,46.794623 c 0,-7.897 -6.4017707,-14.29877 -14.2987907,-14.29877 -7.89701,0 -14.29878,6.40177 -14.29878,14.29877 0,7.89702 6.40177,14.29878 14.29878,14.29878 7.89702,0 14.2987907,-6.40176 14.2987907,-14.29878"
       transform="translate(179.83494,246.25387)" /><path
       id="path7"
       style="fill:#292f33;fill-opacity:1;fill-rule:nonzero;stroke:none;stroke-width:4.08536"
       d="m -15.080672,46.794623 c 0,-3.38676 -2.74128,-6.12805 -6.12805,-6.12805 -3.38677,0 -6.12805,2.74129 -6.12805,6.12805 0,3.38677 2.74128,6.12806 6.12805,6.12806 3.38677,0 6.12805,-2.74129 6.12805,-6.12806"
       transform="translate(179.83494,246.25387)" /><path
       id="path9"
       style="fill:#5c913b;fill-opacity:1;fill-rule:nonzero;stroke:none;stroke-width:3.2413"
       d="m 82.787811,215.88445 c 0,-1.79244 -1.45211,-3.2413 -3.2413,-3.2413 -1.7892,0 -3.2413,1.44886 -3.2413,3.2413 0,1.79244 1.4521,3.2413 3.2413,3.2413 1.78919,0 3.2413,-1.44886 3.2413,-3.2413" /><path
       id="path46"
       style="fill:#5c913b;fill-opacity:1;fill-rule:nonzero;stroke:none;stroke-width:3.2413"
       d="m 116.5902,215.88445 c 0,-1.79244 -1.45211,-3.2413 -3.2413,-3.2413 -1.7892,0 -3.2413,1.44886 -3.2413,3.2413 0,1.79244 1.4521,3.2413 3.2413,3.2413 1.78919,0 3.2413,-1.44886 3.2413,-3.2413" /></g></svg>
